/* XPM */
static char * gchat_linux_xpm[] = {
"32 32 6 1",
" 	c None",
".	c #000000",
"+	c #EF0B1B",
"@	c #5BCD29",
"#	c #D21AD4",
"$	c #FFFFFF",
"................................",
"................................",
".....................+..........",
"........@@@@@@@......+..........",
".......@@............+..........",
".....@@@.............+..........",
"....@@...............+..........",
"....@................+..........",
"....@...........................",
"....@...........................",
"....@.....@..........+..........",
"....@.....@@@@..................",
"....@.....@..@..................",
"....@@....@..@........######....",
".....@......@@......####...#....",
".....@@@....@@.....###..........",
".......@@@@@@.....###...........",
"..................##............",
".................##.............",
".....$$$$$$.....##..............",
"...$$.....$$....#...............",
"..$$$.......$...#..........##...",
"..$.$$..$$..$...##.........##...",
"..$.........$$...##......###....",
"..$..........$...###.....#......",
"..$..$$$$...$$.....#######......",
"..$........$$...................",
"...$$$$$$$$$....................",
"................................",
"................................",
"................................",
"................................"};
